<svg xmlns="http://www.w3.org/2000/svg" xmlns:xlink="http://www.w3.org/1999/xlink" viewBox="0 0 2104.54 590.45"><defs><style>.cls-1{fill:url(#Dégradé_sans_nom);}.cls-2{fill:url(#Dégradé_sans_nom_2);}.cls-3{fill:url(#Dégradé_sans_nom_31);}.cls-4{fill:url(#Dégradé_sans_nom-2);}.cls-5{fill:url(#Dégradé_sans_nom_2-2);}.cls-6{fill:url(#Dégradé_sans_nom_31-2);}.cls-7{fill:url(#Dégradé_sans_nom-3);}.cls-8{fill:url(#Dégradé_sans_nom_2-3);}.cls-9{fill:url(#Dégradé_sans_nom_31-3);}.cls-10{fill:url(#Dégradé_sans_nom-4);}</style><linearGradient id="Dégradé_sans_nom" x1="1366.02" y1="110.02" x2="1366.02" y2="534.65" gradientUnits="userSpaceOnUse"><stop offset="0" stop-color="#b30dfa"/><stop offset="1" stop-color="#600093"/></linearGradient><linearGradient id="Dégradé_sans_nom_2" x1="-3382.17" y1="1605.92" x2="-3382.17" y2="1796.29" gradientTransform="matrix(-0.5, 0.87, 0.87, 0.5, -2739.62, 2330.97)" gradientUnits="userSpaceOnUse"><stop offset="0" stop-color="#b30dfa"/><stop offset="0.24" stop-color="#b00df7"/><stop offset="0.43" stop-color="#a80bed"/><stop offset="0.6" stop-color="#9b09dc"/><stop offset="0.76" stop-color="#8806c4"/><stop offset="0.92" stop-color="#6f02a6"/><stop offset="1" stop-color="#600093"/></linearGradient><linearGradient id="Dégradé_sans_nom_31" x1="-3339.08" y1="1761.14" x2="-3339.08" y2="1884.58" gradientTransform="matrix(-0.5, 0.87, 0.87, 0.5, -2739.62, 2330.97)" gradientUnits="userSpaceOnUse"><stop offset="0" stop-color="#ffe96b"/><stop offset="0.35" stop-color="#efd855"/><stop offset="1" stop-color="#ccb223"/></linearGradient><linearGradient id="Dégradé_sans_nom-2" x1="-3335.41" y1="1767.11" x2="-3335.41" y2="1890.92" gradientTransform="matrix(-0.5, 0.87, 0.87, 0.5, -2739.62, 2330.97)" xlink:href="#Dégradé_sans_nom"/><linearGradient id="Dégradé_sans_nom_2-2" x1="-4198.03" y1="-2906.37" x2="-4198.03" y2="-2716" gradientTransform="matrix(-0.5, -0.87, -0.87, 0.5, -4311.38, -1761.63)" xlink:href="#Dégradé_sans_nom_2"/><linearGradient id="Dégradé_sans_nom_31-2" x1="-4155.28" y1="-2751.15" x2="-4155.28" y2="-2627.74" gradientTransform="matrix(-0.5, -0.87, -0.87, 0.5, -4311.38, -1761.63)" xlink:href="#Dégradé_sans_nom_31"/><linearGradient id="Dégradé_sans_nom-3" x1="-4151.64" y1="-2745.18" x2="-4151.64" y2="-2621.41" gradientTransform="matrix(-0.5, -0.87, -0.87, 0.5, -4311.38, -1761.63)" xlink:href="#Dégradé_sans_nom"/><linearGradient id="Dégradé_sans_nom_2-3" x1="118.93" y1="-1358.29" x2="118.93" y2="-1167.92" gradientTransform="matrix(1, 0, 0, -1, 0, -1073.33)" xlink:href="#Dégradé_sans_nom_2"/><linearGradient id="Dégradé_sans_nom_31-3" x1="162" y1="-1203.07" x2="162" y2="-1079.62" gradientTransform="matrix(1, 0, 0, -1, 0, -1073.33)" xlink:href="#Dégradé_sans_nom_31"/><linearGradient id="Dégradé_sans_nom-4" x1="165.65" y1="-1197.15" x2="165.65" y2="-1073.33" gradientTransform="matrix(1, 0, 0, -1, 0, -1073.33)" xlink:href="#Dégradé_sans_nom"/></defs><title>omnip2022</title><g id="Calque_2" data-name="Calque 2"><g id="Calque_1-2" data-name="Calque 1"><path class="cls-1" d="M627.5,110H771l98.7,240.51h5L973.33,110h143.48V534.65H1004V289.16h-3.32L906.16,531.33h-68L743.61,287.5h-3.32V534.65H627.5Zm911.44,0V534.65h-96.21L1289.31,311.56h-2.49V534.65H1171.54V110h97.86l150.94,222.27h3.32V110Zm170,0V534.65H1593.67V110Zm54.73,424.63V110H1947q47.28,0,82.73,18.67t55.15,52.45q19.69,33.8,19.7,79,0,45.62-20.22,79t-56.6,51.42q-36.39,18-84.9,18H1833.35V319h86.25q20.31,0,34.73-7.15a51.67,51.67,0,0,0,22.18-20.43q7.77-13.26,7.78-31.3,0-18.25-7.78-31.21a51,51,0,0,0-22.18-19.9q-14.41-6.94-34.73-6.95H1879V534.65Z"/><g id="Calque_2-2" data-name="Calque 2"><g id="Calque_7" data-name="Calque 7"><g id="Calque_8_-_copie" data-name="Calque 8 - copie"><path class="cls-2" d="M443.9,378.38c.4-.68.81-1.37,1.23-2.06.69-1.25,1.37-2.52,2.06-3.79s1.42-2.51,2.14-3.76c1.37-2.54,2.61-5.14,4-7.69.18-.33.35-.63.51-1l.11-.23.35-.75.92-2,1.92-3.92a245.46,245.46,0,0,0,12.61-33.17,224.16,224.16,0,0,0,7.6-36.07,202.26,202.26,0,0,0,.86-38.35,212.64,212.64,0,0,0-15.56-65.28q-2.66-6.44-5.76-12.79c-12.37-25.35-30.23-49.25-52.9-70.16a.28.28,0,0,1-.06-.37l0-.07a.33.33,0,0,1,.32-.08c3.65,1.22,7.3,2.5,11,3.79s7.21,2.94,10.85,4.46c.92.37,1.79.81,2.67,1.23l2.67,1.28,5.35,2.58c.44.22.9.43,1.34.69l1.29.69,2.6,1.44L447.3,116a224.56,224.56,0,0,1,25.35,17.32q7,5.55,13.7,11.72A238.73,238.73,0,0,1,527,194.45q1.8,2.91,3.52,5.86a255.28,255.28,0,0,1-5,41.42A241.32,241.32,0,0,1,509,293.38a235.15,235.15,0,0,1-28.33,47.36c-2.89,3.61-5.75,7.29-8.82,10.77-1.53,1.73-3.1,3.44-4.69,5.16l-2.35,2.56c-.8.85-1.58,1.72-2.42,2.51-3.33,3.24-6.66,6.48-10.11,9.62Q448.18,374.93,443.9,378.38Z"/><path class="cls-3" d="M437.7,434.24a54.7,54.7,0,0,1,1.68-47.72l1.44-2.71c1-1.84,2-3.65,3.08-5.44.4-.69.81-1.37,1.23-2.06.69-1.25,1.37-2.53,2.06-3.79s1.42-2.51,2.14-3.77c1.37-2.53,2.61-5.14,4-7.69.18-.32.35-.63.51-.95l.11-.24c1.66-1.59,3.32-3.19,5-4.8.85-.79,1.63-1.66,2.42-2.52l2.36-2.56c1.58-1.7,3.15-3.42,4.69-5.15,3.07-3.5,5.93-7.16,8.82-10.77a235.9,235.9,0,0,0,28.33-47.36A242.63,242.63,0,0,0,522,235.06,254.36,254.36,0,0,0,527,194.45q1.8,2.91,3.52,5.86c1.15,2,2.35,4.12,3.48,6.18q3.67,7.26,6.87,14.81a256.38,256.38,0,0,1,15.55,50.58,242.39,242.39,0,0,1,4.69,54,236,236,0,0,1-7.88,54.61c-1.28,4.45-2.51,8.93-4,13.34-.76,2.19-1.54,4.37-2.34,6.56l-1.2,3.27c-.4,1.1-.78,2.2-1.26,3.26-1.82,4.27-3.65,8.55-5.61,12.76s-4.23,8.24-6.49,12.33a54.83,54.83,0,0,1-94.61,2.21Z"/><path class="cls-4" d="M461.32,460.1a54.82,54.82,0,0,1-21.94-73.57l1.44-2.71c1-1.83,2-3.64,3.08-5.44q4.26-3.44,8.42-7c3.44-3.12,6.78-6.37,10.11-9.62.84-.79,1.62-1.66,2.42-2.51l2.35-2.56c1.59-1.72,3.16-3.44,4.69-5.16,3.07-3.48,5.93-7.16,8.82-10.77A235.4,235.4,0,0,0,509,293.39a241.42,241.42,0,0,0,16.49-51.64,255.41,255.41,0,0,0,5-41.43c1.18,2.06,2.35,4.12,3.48,6.18q5.68,10.41,10.38,21.45a257.05,257.05,0,0,1,15.55,50.58,242.53,242.53,0,0,1,4.69,54,236,236,0,0,1-7.89,54.61c-1.28,4.46-2.5,8.93-4,13.34-.75,2.2-1.54,4.38-2.33,6.56l-1.2,3.28c-.4,1.09-.78,2.19-1.26,3.25-1.82,4.26-3.65,8.55-5.62,12.76s-4.23,8.25-6.48,12.33A54.81,54.81,0,0,1,461.32,460.1Z"/><path class="cls-5" d="M106,426.38c.39.69.78,1.38,1.16,2.1.73,1.24,1.51,2.45,2.25,3.69s1.46,2.48,2.19,3.73c1.52,2.45,3.15,4.81,4.65,7.32.19.32.37.63.58.93l.14.21.48.69,1.25,1.78,2.44,3.63a243,243,0,0,0,22.41,27.48,220.46,220.46,0,0,0,27.48,24.61,201.48,201.48,0,0,0,32.78,19.93,212.84,212.84,0,0,0,64.25,19.16q6.92.92,14,1.4c28.17,2,57.78-1.57,87.21-10.72a.29.29,0,0,1,.35.13.09.09,0,0,1,0,.07.28.28,0,0,1-.08.31c-2.88,2.56-5.82,5.09-8.78,7.64s-6.18,4.76-9.29,7.16c-.77.61-1.59,1.14-2.4,1.7L346.62,551l-4.92,3.34c-.41.28-.82.57-1.24.83l-1.27.77-2.54,1.53-5.14,3.07a225.25,225.25,0,0,1-27.66,13.3q-8.33,3.31-17,6a238.78,238.78,0,0,1-63.1,10.48c-2.27.06-4.54.11-6.82.12a256,256,0,0,1-33.4-25,242.73,242.73,0,0,1-36.48-40.11,236.2,236.2,0,0,1-26.83-48.21c-1.68-4.32-3.43-8.63-4.92-13.06q-1.1-3.3-2.11-6.63l-1-3.33c-.34-1.11-.69-2.22-1-3.35-1.14-4.5-2.28-9-3.27-13.55Q106.89,431.83,106,426.38Z"/><path class="cls-6" d="M60.73,393.08a54.76,54.76,0,0,1,40.49,25.32l1.63,2.6q1.65,2.65,3.17,5.38c.39.69.78,1.38,1.16,2.1.73,1.24,1.51,2.45,2.25,3.69s1.46,2.48,2.19,3.73c1.52,2.45,3.15,4.81,4.65,7.32.19.32.37.63.58.93l.14.21c.55,2.24,1.11,4.46,1.68,6.7.26,1.12.62,2.24,1,3.35l1,3.33c.69,2.21,1.39,4.43,2.11,6.63,1.5,4.41,3.25,8.72,4.93,13a235.59,235.59,0,0,0,26.87,48.24,242.27,242.27,0,0,0,36.48,40.1,254.34,254.34,0,0,0,32.73,24.59c-2.27.06-4.55.11-6.83.12s-4.73,0-7.1-.08q-8.13-.45-16.26-1.44A256.28,256.28,0,0,1,142,577.1a242.51,242.51,0,0,1-49.12-23A236,236,0,0,1,49.53,520c-3.21-3.34-6.49-6.64-9.56-10.13-1.52-1.74-3-3.52-4.51-5.3l-2.24-2.67c-.75-.9-1.51-1.78-2.18-2.75-2.79-3.71-5.58-7.43-8.25-11.24s-5-7.8-7.43-11.78a54.83,54.83,0,0,1,45.39-83.07Z"/><path class="cls-7" d="M26.54,400.62a54.81,54.81,0,0,1,74.68,17.78l1.63,2.6q1.65,2.65,3.17,5.38c.57,3.63,1.2,7.23,1.88,10.83,1,4.54,2.13,9,3.27,13.55.26,1.13.63,2.24,1,3.35l1,3.32c.69,2.23,1.39,4.44,2.12,6.64,1.48,4.4,3.23,8.71,4.91,13.06a236.33,236.33,0,0,0,26.86,48.21,242.27,242.27,0,0,0,36.48,40.1,256.09,256.09,0,0,0,33.4,25c-2.36,0-4.73,0-7.11-.09q-11.85-.29-23.75-1.73a257,257,0,0,1-51.59-11.82,242.51,242.51,0,0,1-49.12-22.95A235.65,235.65,0,0,1,42,519.72c-3.21-3.33-6.49-6.63-9.55-10.12-1.53-1.76-3-3.52-4.52-5.31l-2.24-2.71c-.74-.9-1.51-1.77-2.18-2.75-2.78-3.71-5.58-7.43-8.25-11.25s-5-7.8-7.44-11.77A54.81,54.81,0,0,1,26.54,400.62Z"/><path class="cls-8" d="M233.39,109.77l-2.4,0c-1.43,0-2.87.07-4.31.1s-2.89,0-4.33,0c-2.89.08-5.76.31-8.67.37-.37,0-.73,0-1.09,0h-.25l-.83.08-2.17.19-4.35.29a243.86,243.86,0,0,0-35,5.67,221.58,221.58,0,0,0-35,11.46,201,201,0,0,0-33.66,18.42,212.48,212.48,0,0,0-48.72,46.1q-4.26,5.49-8.21,11.38C28.55,227.23,16.79,254.67,10,284.72a.3.3,0,0,1-.3.24H9.64a.33.33,0,0,1-.24-.24c-.77-3.77-1.49-7.56-2.22-11.42s-1-7.71-1.55-11.62c-.14-1-.2-1.95-.28-2.93l-.22-2.95-.43-5.92c0-.49-.09-1-.1-1.49v-1.48l0-3-.09-6a223.8,223.8,0,0,1,2.32-30.6q1.29-8.86,3.3-17.72a238.58,238.58,0,0,1,22.48-59.89q1.62-3,3.31-6a255.36,255.36,0,0,1,38.35-16.42,241.9,241.9,0,0,1,53-11.54,235.78,235.78,0,0,1,55.18.85c4.57.69,9.18,1.34,13.74,2.25q3.39.7,6.8,1.49l3.4.76c1.13.26,2.27.5,3.39.84,4.46,1.26,8.93,2.53,13.37,3.94Q228.26,107.8,233.39,109.77Z"/><path class="cls-9" d="M284.87,87.2a54.72,54.72,0,0,1-42.16,22.41l-3.07.11c-2.06.07-4.17.08-6.25,0l-2.4,0c-1.43,0-2.87.07-4.31.1s-2.89,0-4.33,0c-2.89.08-5.76.31-8.67.37-.37,0-.73,0-1.09,0h-.25c-2.21-.65-4.43-1.27-6.64-1.9-1.11-.33-2.25-.58-3.39-.83l-3.43-.77c-2.27-.52-4.54-1-6.8-1.49-4.57-.9-9.18-1.54-13.74-2.24a235.79,235.79,0,0,0-55.18-.86,242.49,242.49,0,0,0-53,11.55,255.31,255.31,0,0,0-37.66,16.05c1.08-2,2.19-4,3.31-6s2.34-4,3.63-6.11q4.44-6.82,9.37-13.37a256.38,256.38,0,0,1,36-38.76A242.25,242.25,0,0,1,129.3,34.46,235.82,235.82,0,0,1,180.53,14c4.5-1.12,9-2.3,13.55-3.22,2.28-.44,4.57-.85,6.87-1.26l3.44-.59c1.15-.2,2.29-.42,3.43-.53,4.61-.57,9.23-1.12,13.86-1.53,4.64-.26,9.28-.46,13.92-.55a54.82,54.82,0,0,1,49.27,80.9Z"/><path class="cls-10" d="M295.43,53.82a54.83,54.83,0,0,1-52.74,55.79l-3.07.11c-2.07.07-4.17.08-6.25,0q-5.13-2-10.31-3.78c-4.42-1.41-8.93-2.68-13.37-3.94-1.11-.34-2.25-.58-3.38-.84l-3.4-.76q-3.41-.78-6.81-1.49c-4.55-.91-9.16-1.55-13.74-2.25a235.78,235.78,0,0,0-55.18-.85,241.93,241.93,0,0,0-53,11.54,255.91,255.91,0,0,0-38.36,16.42c1.18-2,2.39-4.08,3.63-6.11Q45.66,107.6,52.86,98a256.85,256.85,0,0,1,36-38.76,242.76,242.76,0,0,1,44.45-31.06A235.9,235.9,0,0,1,184.58,7.7c4.49-1.12,9-2.3,13.54-3.21,2.28-.45,4.57-.86,6.87-1.26l3.44-.6c1.15-.2,2.29-.42,3.43-.53,4.61-.56,9.23-1.12,13.87-1.52S235,.11,239.64,0A54.82,54.82,0,0,1,295.43,53.82Z"/></g></g></g></g></g></svg>