<?xml version="1.0" encoding="utf-8"?>
<!-- Generator: Adobe Illustrator 24.0.1, SVG Export Plug-In . SVG Version: 6.00 Build 0)  -->
<svg version="1.1" xmlns="http://www.w3.org/2000/svg" xmlns:xlink="http://www.w3.org/1999/xlink" x="0px" y="0px"
	 viewBox="0 0 720 600" style="enable-background:new 0 0 720 600;" xml:space="preserve">
<style type="text/css">
	.st0{display:none;}
	.st1{display:inline;fill:#1D4ED8;}
	.st2{display:inline;fill:#1A64DD;}
	.st3{display:inline;fill:#177AE1;}
	.st4{display:inline;fill:#1490E6;}
	.st5{display:inline;fill:#11A6EA;}
	.st6{display:inline;fill:#0EBCEF;}
	.st7{display:inline;fill:#0BD2F3;}
	.st8{display:inline;fill:#08E8F8;}
	.st9{display:inline;fill:#05FEFC;}
	.st10{fill:url(#SVGID_1_);}
	.st11{fill:#1D4ED8;}
	.st12{fill:url(#SVGID_2_);}
	.st13{fill:#0BD2F3;}
	.st14{fill:#11A6EA;}
	.st15{fill:url(#SVGID_3_);}
</style>
<g id="Calque_1" class="st0">
	<polyline class="st1" points="-173.6,-43.1 -120.3,-43.1 -120.3,10.1 -173.6,10.1 	"/>
	<polyline class="st2" points="-173.6,18.5 -120.3,18.5 -120.3,71.7 -173.6,71.7 	"/>
	<polyline class="st3" points="-173.6,80.1 -120.3,80.1 -120.3,133.3 -173.6,133.3 	"/>
	<polyline class="st4" points="-173.6,141.7 -120.3,141.7 -120.3,195 -173.6,195 	"/>
	<polyline class="st5" points="-173.6,203.3 -120.3,203.3 -120.3,256.6 -173.6,256.6 	"/>
	<polyline class="st6" points="-173.6,265 -120.3,265 -120.3,318.2 -173.6,318.2 	"/>
	<polyline class="st7" points="-173.6,326.6 -120.3,326.6 -120.3,379.8 -173.6,379.8 	"/>
	<polyline class="st8" points="-173.6,388.2 -120.3,388.2 -120.3,441.4 -173.6,441.4 	"/>
	<polyline class="st9" points="-173.6,449.8 -120.3,449.8 -120.3,503.1 -173.6,503.1 	"/>
</g>
<g id="Calque_2">
	<linearGradient id="SVGID_1_" gradientUnits="userSpaceOnUse" x1="397.7176" y1="92.6415" x2="202.9539" y2="394.6607">
		<stop  offset="0" style="stop-color:#0BD2F3"/>
		<stop  offset="1" style="stop-color:#1D4ED8"/>
	</linearGradient>
	<rect x="173.1" y="112.4" class="st10" width="257.6" height="257.6"/>
	<g>
		<g>
			<circle class="st11" cx="110.1" cy="362.1" r="4.5"/>
			<circle class="st11" cx="133.3" cy="362.1" r="4.5"/>
			<circle class="st11" cx="156.5" cy="362.1" r="4.5"/>
			<circle class="st11" cx="179.7" cy="362.1" r="4.5"/>
			<circle class="st11" cx="202.9" cy="362.1" r="4.5"/>
			<circle class="st11" cx="226.1" cy="362.1" r="4.5"/>
			<circle class="st11" cx="249.3" cy="362.1" r="4.5"/>
		</g>
		<g>
			<circle class="st11" cx="110.1" cy="385.5" r="4.5"/>
			<circle class="st11" cx="133.3" cy="385.5" r="4.5"/>
			<circle class="st11" cx="156.5" cy="385.5" r="4.5"/>
			<circle class="st11" cx="179.7" cy="385.5" r="4.5"/>
			<circle class="st11" cx="202.9" cy="385.5" r="4.5"/>
			<circle class="st11" cx="226.1" cy="385.5" r="4.5"/>
			<circle class="st11" cx="249.3" cy="385.5" r="4.5"/>
		</g>
		<g>
			<circle class="st11" cx="110.1" cy="408.9" r="4.5"/>
			<circle class="st11" cx="133.3" cy="408.9" r="4.5"/>
			<circle class="st11" cx="156.5" cy="408.9" r="4.5"/>
			<circle class="st11" cx="179.7" cy="408.9" r="4.5"/>
			<circle class="st11" cx="202.9" cy="408.9" r="4.5"/>
			<circle class="st11" cx="226.1" cy="408.9" r="4.5"/>
			<circle class="st11" cx="249.3" cy="408.9" r="4.5"/>
		</g>
		<g>
			<circle class="st11" cx="110.1" cy="432.3" r="4.5"/>
			<circle class="st11" cx="133.3" cy="432.3" r="4.5"/>
			<circle class="st11" cx="156.5" cy="432.3" r="4.5"/>
			<circle class="st11" cx="179.7" cy="432.3" r="4.5"/>
			<circle class="st11" cx="202.9" cy="432.3" r="4.5"/>
			<circle class="st11" cx="226.1" cy="432.3" r="4.5"/>
			<circle class="st11" cx="249.3" cy="432.3" r="4.5"/>
		</g>
		<g>
			<circle class="st11" cx="110.1" cy="455.6" r="4.5"/>
			<circle class="st11" cx="133.3" cy="455.6" r="4.5"/>
			<circle class="st11" cx="156.5" cy="455.6" r="4.5"/>
			<circle class="st11" cx="179.7" cy="455.6" r="4.5"/>
			<circle class="st11" cx="202.9" cy="455.6" r="4.5"/>
			<circle class="st11" cx="226.1" cy="455.6" r="4.5"/>
			<circle class="st11" cx="249.3" cy="455.6" r="4.5"/>
		</g>
		<g>
			<circle class="st11" cx="110.1" cy="479" r="4.5"/>
			<circle class="st11" cx="133.3" cy="479" r="4.5"/>
			<circle class="st11" cx="156.5" cy="479" r="4.5"/>
			<circle class="st11" cx="179.7" cy="479" r="4.5"/>
			<circle class="st11" cx="202.9" cy="479" r="4.5"/>
			<circle class="st11" cx="226.1" cy="479" r="4.5"/>
			<circle class="st11" cx="249.3" cy="479" r="4.5"/>
		</g>
		<g>
			<circle class="st11" cx="110.1" cy="502.4" r="4.5"/>
			<circle class="st11" cx="133.3" cy="502.4" r="4.5"/>
			<circle class="st11" cx="156.5" cy="502.4" r="4.5"/>
			<circle class="st11" cx="179.7" cy="502.4" r="4.5"/>
			<circle class="st11" cx="202.9" cy="502.4" r="4.5"/>
			<circle class="st11" cx="226.1" cy="502.4" r="4.5"/>
			<circle class="st11" cx="249.3" cy="502.4" r="4.5"/>
		</g>
	</g>
	<linearGradient id="SVGID_2_" gradientUnits="userSpaceOnUse" x1="380.8489" y1="594.7899" x2="260.6571" y2="408.2886">
		<stop  offset="0" style="stop-color:#0BD2F3"/>
		<stop  offset="0.9637" style="stop-color:#1C53D9"/>
		<stop  offset="1" style="stop-color:#1D4ED8"/>
	</linearGradient>
	<rect x="242.2" y="423.5" class="st12" width="159" height="159"/>
	<g>
		<g>
			<circle class="st13" cx="393.3" cy="281.6" r="4.9"/>
			<circle class="st13" cx="418.5" cy="281.6" r="4.9"/>
			<circle class="st13" cx="443.7" cy="281.6" r="4.9"/>
			<circle class="st13" cx="468.8" cy="281.6" r="4.9"/>
			<circle class="st13" cx="494" cy="281.6" r="4.9"/>
			<circle class="st13" cx="519.2" cy="281.6" r="4.9"/>
			<circle class="st13" cx="544.4" cy="281.6" r="4.9"/>
		</g>
		<g>
			<circle class="st13" cx="393.3" cy="307" r="4.9"/>
			<circle class="st13" cx="418.5" cy="307" r="4.9"/>
			<circle class="st13" cx="443.7" cy="307" r="4.9"/>
			<circle class="st13" cx="468.8" cy="307" r="4.9"/>
			<circle class="st13" cx="494" cy="307" r="4.9"/>
			<circle class="st13" cx="519.2" cy="307" r="4.9"/>
			<circle class="st13" cx="544.4" cy="307" r="4.9"/>
		</g>
		<g>
			<circle class="st13" cx="393.3" cy="332.4" r="4.9"/>
			<circle class="st13" cx="418.5" cy="332.4" r="4.9"/>
			<circle class="st13" cx="443.7" cy="332.4" r="4.9"/>
			<circle class="st13" cx="468.8" cy="332.4" r="4.9"/>
			<circle class="st13" cx="494" cy="332.4" r="4.9"/>
			<circle class="st13" cx="519.2" cy="332.4" r="4.9"/>
			<circle class="st13" cx="544.4" cy="332.4" r="4.9"/>
		</g>
		<g>
			<circle class="st13" cx="393.3" cy="357.7" r="4.9"/>
			<circle class="st13" cx="418.5" cy="357.7" r="4.9"/>
			<circle class="st13" cx="443.7" cy="357.7" r="4.9"/>
			<circle class="st13" cx="468.8" cy="357.7" r="4.9"/>
			<circle class="st13" cx="494" cy="357.7" r="4.9"/>
			<circle class="st13" cx="519.2" cy="357.7" r="4.9"/>
			<circle class="st13" cx="544.4" cy="357.7" r="4.9"/>
		</g>
		<g>
			<circle class="st13" cx="393.3" cy="383.1" r="4.9"/>
			<circle class="st13" cx="418.5" cy="383.1" r="4.9"/>
			<circle class="st13" cx="443.7" cy="383.1" r="4.9"/>
			<circle class="st13" cx="468.8" cy="383.1" r="4.9"/>
			<circle class="st13" cx="494" cy="383.1" r="4.9"/>
			<circle class="st13" cx="519.2" cy="383.1" r="4.9"/>
			<circle class="st13" cx="544.4" cy="383.1" r="4.9"/>
		</g>
		<g>
			<circle class="st13" cx="393.3" cy="408.5" r="4.9"/>
			<circle class="st13" cx="418.5" cy="408.5" r="4.9"/>
			<circle class="st13" cx="443.7" cy="408.5" r="4.9"/>
			<circle class="st13" cx="468.8" cy="408.5" r="4.9"/>
			<circle class="st13" cx="494" cy="408.5" r="4.9"/>
			<circle class="st13" cx="519.2" cy="408.5" r="4.9"/>
			<circle class="st13" cx="544.4" cy="408.5" r="4.9"/>
		</g>
		<g>
			<circle class="st13" cx="393.3" cy="433.9" r="4.9"/>
			<circle class="st13" cx="418.5" cy="433.9" r="4.9"/>
			<circle class="st13" cx="443.7" cy="433.9" r="4.9"/>
			<circle class="st13" cx="468.8" cy="433.9" r="4.9"/>
			<circle class="st13" cx="494" cy="433.9" r="4.9"/>
			<circle class="st13" cx="519.2" cy="433.9" r="4.9"/>
			<circle class="st13" cx="544.4" cy="433.9" r="4.9"/>
		</g>
	</g>
	<g>
		<g>
			<circle class="st14" cx="60.1" cy="49.9" r="4.9"/>
			<circle class="st14" cx="85.3" cy="49.9" r="4.9"/>
			<circle class="st14" cx="110.5" cy="49.9" r="4.9"/>
			<circle class="st14" cx="135.6" cy="49.9" r="4.9"/>
			<circle class="st14" cx="160.8" cy="49.9" r="4.9"/>
			<circle class="st14" cx="186" cy="49.9" r="4.9"/>
			<circle class="st14" cx="211.2" cy="49.9" r="4.9"/>
		</g>
		<g>
			<circle class="st14" cx="60.1" cy="75.2" r="4.9"/>
			<circle class="st14" cx="85.3" cy="75.2" r="4.9"/>
			<circle class="st14" cx="110.5" cy="75.2" r="4.9"/>
			<circle class="st14" cx="135.6" cy="75.2" r="4.9"/>
			<circle class="st14" cx="160.8" cy="75.2" r="4.9"/>
			<circle class="st14" cx="186" cy="75.2" r="4.9"/>
			<circle class="st14" cx="211.2" cy="75.2" r="4.9"/>
		</g>
		<g>
			<circle class="st14" cx="60.1" cy="100.6" r="4.9"/>
			<circle class="st14" cx="85.3" cy="100.6" r="4.9"/>
			<circle class="st14" cx="110.5" cy="100.6" r="4.9"/>
			<circle class="st14" cx="135.6" cy="100.6" r="4.9"/>
			<circle class="st14" cx="160.8" cy="100.6" r="4.9"/>
			<circle class="st14" cx="186" cy="100.6" r="4.9"/>
			<circle class="st14" cx="211.2" cy="100.6" r="4.9"/>
		</g>
		<g>
			<circle class="st14" cx="60.1" cy="126" r="4.9"/>
			<circle class="st14" cx="85.3" cy="126" r="4.9"/>
			<circle class="st14" cx="110.5" cy="126" r="4.9"/>
			<circle class="st14" cx="135.6" cy="126" r="4.9"/>
			<circle class="st14" cx="160.8" cy="126" r="4.9"/>
			<circle class="st14" cx="186" cy="126" r="4.9"/>
			<circle class="st14" cx="211.2" cy="126" r="4.9"/>
		</g>
		<g>
			<circle class="st14" cx="60.1" cy="151.4" r="4.9"/>
			<circle class="st14" cx="85.3" cy="151.4" r="4.9"/>
			<circle class="st14" cx="110.5" cy="151.4" r="4.9"/>
			<circle class="st14" cx="135.6" cy="151.4" r="4.9"/>
			<circle class="st14" cx="160.8" cy="151.4" r="4.9"/>
			<circle class="st14" cx="186" cy="151.4" r="4.9"/>
			<circle class="st14" cx="211.2" cy="151.4" r="4.9"/>
		</g>
		<g>
			<circle class="st14" cx="60.1" cy="176.7" r="4.9"/>
			<circle class="st14" cx="85.3" cy="176.7" r="4.9"/>
			<circle class="st14" cx="110.5" cy="176.7" r="4.9"/>
			<circle class="st14" cx="135.6" cy="176.7" r="4.9"/>
			<circle class="st14" cx="160.8" cy="176.7" r="4.9"/>
			<circle class="st14" cx="186" cy="176.7" r="4.9"/>
			<circle class="st14" cx="211.2" cy="176.7" r="4.9"/>
		</g>
		<g>
			<circle class="st14" cx="60.1" cy="202.1" r="4.9"/>
			<circle class="st14" cx="85.3" cy="202.1" r="4.9"/>
			<circle class="st14" cx="110.5" cy="202.1" r="4.9"/>
			<circle class="st14" cx="135.6" cy="202.1" r="4.9"/>
			<circle class="st14" cx="160.8" cy="202.1" r="4.9"/>
			<circle class="st14" cx="186" cy="202.1" r="4.9"/>
			<circle class="st14" cx="211.2" cy="202.1" r="4.9"/>
		</g>
	</g>
	<linearGradient id="SVGID_3_" gradientUnits="userSpaceOnUse" x1="514.0402" y1="338.3327" x2="667.8555" y2="81.4447">
		<stop  offset="0" style="stop-color:#0BD2F3"/>
		<stop  offset="1" style="stop-color:#1D4ED8"/>
	</linearGradient>
	<rect x="481.6" y="103.9" class="st15" width="216.3" height="216.3"/>
</g>
</svg>
