<?xml version="1.0" encoding="utf-8"?>
<!-- Generator: Adobe Illustrator 28.1.0, SVG Export Plug-In . SVG Version: 6.00 Build 0)  -->
<svg version="1.2" baseProfile="tiny" id="Layer_1" xmlns="http://www.w3.org/2000/svg" xmlns:xlink="http://www.w3.org/1999/xlink"
	 x="0px" y="0px" viewBox="0 0 366 729" overflow="visible" xml:space="preserve">
<g>
	<g>
		<radialGradient id="SVGID_1_" cx="1" cy="365.6513" r="494.8299" gradientUnits="userSpaceOnUse">
			<stop  offset="0" style="stop-color:#050505"/>
			<stop  offset="1" style="stop-color:#191919"/>
		</radialGradient>
		<path fill="url(#SVGID_1_)" d="M364.3,187l-1.7-0.3c0.1-0.4,0.2-0.7,0.2-1c0.1-0.4,0.3-0.6,0.5-0.8V64.2c0-41.2-22-63.2-63.2-63.2
			H66.8C25.5,1,3.5,23,3.5,64.2v44.7L2.7,109c-0.4,0.1-0.7,0.2-1,0.5c-0.1,0-0.1,0.1-0.2,0.2c-0.1,0.1-0.1,0.2-0.2,0.3
			c0,0.1-0.1,0.1-0.1,0.2c0,0.1-0.1,0.2-0.1,0.4c0,0.1-0.1,0.3-0.1,0.5v24.6c0,0,0,0.1,0,0.1c0.1,0.9,0.8,1.7,1.7,1.8l0.2,0
			c0,0,0,0,0,0l0.6,0.1l0.1,0c0,0.1-0.1,0.2-0.1,0.2v26.2c0.1,0,0.2,0.1,0.3,0.2c0,0,0,0,0,0c0.1,0.1,0.2,0.2,0.2,0.4L2.7,165
			c-1,0.2-1.7,1-1.7,2v47.6c0,1,0.7,1.8,1.7,2l1.4,0.2c-0.1,0.3-0.3,0.5-0.5,0.6v16.6c0,0,0.1,0.1,0.2,0.1c0.1,0.1,0.2,0.2,0.3,0.3
			v0c0.1,0.1,0.1,0.2,0.1,0.2L2.7,235c-1,0.2-1.7,1-1.7,2v47.6c0,1,0.7,1.8,1.7,2l1.4,0.2c-0.1,0.3-0.3,0.5-0.5,0.6v377.7
			c0,41.2,22,63.2,63.2,63.2h95.1c1-0.5,2.7-0.8,4.8-0.8h0.4l33.7,0c1.8,0,3.5,0.4,4.3,0.8h95.1c41.2,0,63.2-22,63.2-63.2V270.5
			c-0.2-0.3-0.5-0.8-0.6-1.5l0-0.1l1.7-0.3c1-0.2,1.7-1,1.7-2V189C366,188,365.3,187.2,364.3,187z M24,55.3
			c0-18.1,14.7-32.8,32.9-32.8h32.9c2.3,0,4.2,1.9,4.2,4.2v2.5c0,10.2,8.3,18.5,18.5,18.5h139c10.2,0,18.5-8.3,18.5-18.5v-2.5
			c0-2.3,1.9-4.2,4.2-4.2h32.9c18.1,0,32.9,14.7,32.9,32.8v618.3c0,18.1-14.7,32.8-32.9,32.8H56.9c-18.1,0-32.9-14.7-32.9-32.8V55.3
			z"/>
		
			<radialGradient id="SVGID_00000133524255153152116930000016207732446567866772_" cx="1" cy="364.655" r="218.1226" gradientUnits="userSpaceOnUse">
			<stop  offset="0" style="stop-color:#000000"/>
			<stop  offset="0.533" style="stop-color:#000000;stop-opacity:0"/>
		</radialGradient>
		<path fill="url(#SVGID_00000133524255153152116930000016207732446567866772_)" d="M364.3,187l-1.7-0.3c0.1-0.4,0.2-0.7,0.2-1
			c0.1-0.4,0.3-0.6,0.5-0.8V64.2c0-41.2-22-63.2-63.2-63.2H66.8C25.5,1,3.5,23,3.5,64.2v44.7L2.7,109c-0.4,0.1-0.7,0.2-1,0.5
			c-0.1,0-0.1,0.1-0.2,0.2c-0.1,0.1-0.1,0.2-0.2,0.3c0,0.1-0.1,0.1-0.1,0.2c0,0.1-0.1,0.2-0.1,0.4c0,0.1-0.1,0.3-0.1,0.5v24.6
			c0,0,0,0.1,0,0.1c0.1,0.9,0.8,1.7,1.7,1.8l0.2,0c0,0,0,0,0,0l0.6,0.1l0.1,0c0,0.1-0.1,0.2-0.1,0.2v26.2c0.1,0,0.2,0.1,0.3,0.2
			c0,0,0,0,0,0c0.1,0.1,0.2,0.2,0.2,0.4L2.7,165c-1,0.2-1.7,1-1.7,2v47.6c0,1,0.7,1.8,1.7,2l1.4,0.2c-0.1,0.3-0.3,0.5-0.5,0.6v16.6
			c0,0,0.1,0.1,0.2,0.1c0.1,0.1,0.2,0.2,0.3,0.3v0c0.1,0.1,0.1,0.2,0.1,0.2L2.7,235c-1,0.2-1.7,1-1.7,2v47.6c0,1,0.7,1.8,1.7,2
			l1.4,0.2c-0.1,0.3-0.3,0.5-0.5,0.6v377.7c0,41.2,22,63.2,63.2,63.2h95.1c1-0.5,2.7-0.8,4.8-0.8h0.4l33.7,0c1.8,0,3.5,0.4,4.3,0.8
			h95.1c41.2,0,63.2-22,63.2-63.2V270.5c-0.2-0.3-0.5-0.8-0.6-1.5l0-0.1l1.7-0.3c1-0.2,1.7-1,1.7-2V189
			C366,188,365.3,187.2,364.3,187z M24,55.3c0-18.1,14.7-32.8,32.9-32.8h32.9c2.3,0,4.2,1.9,4.2,4.2v2.5c0,10.2,8.3,18.5,18.5,18.5
			h139c10.2,0,18.5-8.3,18.5-18.5v-2.5c0-2.3,1.9-4.2,4.2-4.2h32.9c18.1,0,32.9,14.7,32.9,32.8v618.3c0,18.1-14.7,32.8-32.9,32.8
			H56.9c-18.1,0-32.9-14.7-32.9-32.8V55.3z"/>
	</g>
	<g>
		<image width="4" height="30" xlink:href="98549F3F.png"  transform="matrix(1 0 0 1 1 108)">
		</image>
		<image width="4" height="30" xlink:href="98549F3D.png"  transform="matrix(1 0 0 1 1 108)">
		</image>
	</g>
	<g>
		<image width="4" height="55" xlink:href="98549F43.png"  transform="matrix(1 0 0 1 1 163)">
		</image>
		<image width="4" height="55" xlink:href="98549F45.png"  transform="matrix(1 0 0 1 1 163)">
		</image>
	</g>
	<g>
		<image width="4" height="55" xlink:href="98549F47.png"  transform="matrix(1 0 0 1 1 233)">
		</image>
		<image width="4" height="55" xlink:href="98549F44.png"  transform="matrix(1 0 0 1 1 233)">
		</image>
	</g>
	<g>
		<image width="4" height="87" xlink:href="98549F4C.png"  transform="matrix(1 0 0 1 362 184)">
		</image>
		<image width="4" height="87" xlink:href="98549F4D.png"  transform="matrix(1 0 0 1 362 184)">
		</image>
	</g>
	
		<linearGradient id="SVGID_00000008136943460470092950000014035148558509264038_" gradientUnits="userSpaceOnUse" x1="182" y1="717" x2="182" y2="14">
		<stop  offset="0" style="stop-color:#000000"/>
		<stop  offset="0.381" style="stop-color:#000000;stop-opacity:0"/>
	</linearGradient>
	<path fill="none" stroke="url(#SVGID_00000008136943460470092950000014035148558509264038_)" stroke-opacity="0.5" d="M305,14.5H59
		c-24.6,0-44.5,19.9-44.5,44.5v615c0,23.5,19,42.5,42.5,42.5h250c23.5,0,42.5-19,42.5-42.5V59C349.5,34.4,329.6,14.5,305,14.5z
		 M24,673.7V55.3c0-18.1,14.7-32.8,32.9-32.8h32.9c2.3,0,4.2,1.9,4.2,4.2v2.5c0,10.2,8.3,18.5,18.5,18.5h139
		c10.2,0,18.5-8.3,18.5-18.5v-2.5c0-2.3,1.9-4.2,4.2-4.2h32.9c18.1,0,32.9,14.7,32.9,32.8v618.3c0,18.1-14.7,32.8-32.9,32.8H56.9
		C38.7,706.5,24,691.8,24,673.7z"/>
	<g>
		
			<radialGradient id="SVGID_00000129191829327104070500000002224890580276783503_" cx="21.2171" cy="366" r="426.9151" gradientUnits="userSpaceOnUse">
			<stop  offset="0.319" style="stop-color:#2B2B2B"/>
			<stop  offset="1" style="stop-color:#191919"/>
		</radialGradient>
		<path fill="url(#SVGID_00000129191829327104070500000002224890580276783503_)" fill-opacity="0.3" d="M305,16H59
			c-23.8,0-43,19.2-43,43v615c0,23.2,18.8,42,42,42h248c23.2,0,42-18.8,42-42V59C348,35.2,328.8,16,305,16z M340,673.7
			c0,18.1-14.7,32.8-32.9,32.8H56.9c-18.1,0-32.9-14.7-32.9-32.8V55.3c0-18.1,14.7-32.8,32.9-32.8h32.9c2.3,0,4.2,1.9,4.2,4.2v2.5
			c0,10.2,8.3,18.5,18.5,18.5h139c10.2,0,18.5-8.3,18.5-18.5v-2.5c0-2.3,1.9-4.2,4.2-4.2h32.9c18.1,0,32.9,14.7,32.9,32.8V673.7z"/>
		<path fill="none" stroke="#FFFFFF" stroke-opacity="7.000000e-02" d="M305,15.5H59C35,15.5,15.5,35,15.5,59v615
			c0,23.5,19,42.5,42.5,42.5h248c23.5,0,42.5-19,42.5-42.5V59C348.5,35,329,15.5,305,15.5z M340,673.7c0,18.1-14.7,32.8-32.9,32.8
			H56.9c-18.1,0-32.9-14.7-32.9-32.8V55.3c0-18.1,14.7-32.8,32.9-32.8h32.9c2.3,0,4.2,1.9,4.2,4.2v2.5c0,10.2,8.3,18.5,18.5,18.5
			h139c10.2,0,18.5-8.3,18.5-18.5v-2.5c0-2.3,1.9-4.2,4.2-4.2h32.9c18.1,0,32.9,14.7,32.9,32.8V673.7z"/>
	</g>
	<g>
		<path fill="#2B2B2B" d="M156.5,29h51c1.4,0,2.5,1.1,2.5,2.5l0,0c0,1.4-1.1,2.5-2.5,2.5h-51c-1.4,0-2.5-1.1-2.5-2.5l0,0
			C154,30.1,155.1,29,156.5,29z"/>
	</g>
</g>
</svg>
