<?xml version="1.0" encoding="UTF-8" standalone="no"?>
<svg
   xmlns:dc="http://purl.org/dc/elements/1.1/"
   xmlns:cc="http://creativecommons.org/ns#"
   xmlns:rdf="http://www.w3.org/1999/02/22-rdf-syntax-ns#"
   xmlns:svg="http://www.w3.org/2000/svg"
   xmlns="http://www.w3.org/2000/svg"
   xmlns:sodipodi="http://sodipodi.sourceforge.net/DTD/sodipodi-0.dtd"
   xmlns:inkscape="http://www.inkscape.org/namespaces/inkscape"
   width="128.77815"
   height="31.308346"
   viewBox="0 0 128.77815 31.308346"
   version="1.1"
   id="svg23">
  <defs
     id="defs27" />
  <sodipodi:namedview
     pagecolor="#ffffff"
     bordercolor="#666666"
     borderopacity="1"
     objecttolerance="10"
     gridtolerance="10"
     guidetolerance="10"
     inkscape:pageopacity="0"
     inkscape:pageshadow="2"
     inkscape:window-width="1920"
     inkscape:window-height="1017"
     id="namedview25"
     showgrid="false"
     fit-margin-top="0"
     fit-margin-left="0"
     fit-margin-right="0"
     fit-margin-bottom="0"
     inkscape:zoom="2.6024445"
     inkscape:cx="22.208274"
     inkscape:cy="21.828879"
     inkscape:window-x="-8"
     inkscape:window-y="-8"
     inkscape:window-maximized="1"
     inkscape:current-layer="svg23" />
  <!-- Generator: Sketch 55.2 (78181) - https://sketchapp.com -->
  <title
     id="title2">编组</title>
  <desc
     id="desc4">Created with Sketch.</desc>
  <g
     id="页面1"
     style="fill:none;fill-rule:evenodd;stroke:none;stroke-width:1"
     transform="translate(31.778155,7.4462406)">
    <g
       id="编组"
       transform="translate(0.77,0.28)"
       style="fill-rule:nonzero">
      <polygon
         id="路径"
         points="14.64,4.72 10.46,4.72 10.46,21.72 5.23,21.72 5.23,4.72 0.01,4.72 3.5527137e-015,0.06 16.12,0.06 "
         style="fill:#000000" />
      <polygon
         id="polygon7"
         points="57.53,4.72 52.99,4.72 52.99,21.72 47.77,21.72 47.77,4.72 42.53,4.72 42.52,0.06 59.01,0.06 "
         style="fill:#000000" />
      <polygon
         id="polygon9"
         points="22.27,21.72 17.14,21.72 17.1,6.95 22.27,6.95 "
         style="fill:#000000" />
      <polygon
         id="polygon11"
         points="29.48,10.09 34.6,5.09 40.76,5.09 34.29,11.37 41.54,21.72 35.85,21.72 31.01,14.53 29.48,16.01 29.48,21.72 24.32,21.72 24.32,0 29.48,0 "
         style="fill:#000000" />
      <polygon
         id="polygon13"
         points="84.23,10.09 89.34,5.09 95.5,5.09 89.03,11.37 96.23,21.72 90.54,21.72 85.71,14.53 84.23,16.01 84.23,21.72 79.06,21.72 79.01,0 84.23,0 "
         style="fill:#000000" />
      <circle
         id="椭圆形"
         cx="19.690001"
         cy="2.6600001"
         r="2.5999999"
         style="fill:#000000" />
      <path
         d="m 58.35,12.88 c 0.0016,-4.6134273 3.550647,-8.4499024 8.15,-8.81 -0.23,0 -0.54,0 -0.77,0 -4.674305,0.2726496 -8.325243,4.1427496 -8.325243,8.825 0,4.68225 3.650938,8.55235 8.325243,8.825 0.23,0 0.54,0 0.77,0 -4.610869,-0.360978 -8.164109,-4.215044 -8.15,-8.84 z"
         id="path16"
         inkscape:connector-curvature="0"
         style="fill:#25f4ee" />
      <path
         d="m 68.51,4.04 c -0.24,0 -0.55,0 -0.78,0 4.58446,0.3786564 8.112332,4.2099289 8.112332,8.81 0,4.600071 -3.527872,8.431344 -8.112332,8.81 0.23,0 0.54,0 0.78,0 4.882197,0 8.84,-3.957803 8.84,-8.84 0,-4.8821972 -3.957803,-8.84 -8.84,-8.84 z"
         id="path18"
         inkscape:connector-curvature="0"
         style="fill:#fe2c55" />
      <path
         d="m 67.11,17.18 c -2.374824,0 -4.3,-1.925176 -4.3,-4.3 0,-2.374824 1.925176,-4.3 4.3,-4.3 2.374824,0 4.3,1.925176 4.3,4.3 -0.0055,2.372543 -1.927457,4.294502 -4.3,4.3 z m 0,-13.14 c -4.882197,0 -8.84,3.9578028 -8.84,8.84 0,4.882197 3.957803,8.84 8.84,8.84 4.882197,0 8.84,-3.957803 8.84,-8.84 0,-2.344514 -0.931354,-4.5930024 -2.589176,-6.250824 C 71.703002,4.9713545 69.454514,4.04 67.11,4.04 Z"
         id="形状"
         inkscape:connector-curvature="0"
         style="fill:#000000" />
    </g>
  </g>
  <g
     id="页面1-6"
     style="fill:none;fill-rule:evenodd;stroke:none;stroke-width:1"
     transform="translate(-0.979236)">
    <g
       transform="translate(0.979236)"
       id="编组-2"
       style="fill-rule:nonzero">
      <path
         id="路径-7"
         d="M 10.790765,12.33 V 11.11 C 10.367263,11.042889 9.9395067,11.006128 9.5107645,10.999979 5.3599655,10.991223 1.6850968,13.681021 0.43866769,17.640266 -0.8077614,21.599511 0.66350584,25.909389 4.0707645,28.28 1.5184848,25.548482 0.80979954,21.572083 2.2612682,18.127005 3.7127368,14.681927 7.0532954,12.411543 10.790765,12.33 Z"
         inkscape:connector-curvature="0"
         style="fill:#25f4ee" />
      <path
         id="path841"
         d="m 11.020765,26.15 c 2.320764,-0.0031 4.228401,-1.831459 4.33,-4.15 V 1.31 h 3.78 C 19.053607,0.87768232 19.016782,0.43913099 19.020764,0 h -5.169999 v 20.67 c -0.08597,2.330339 -1.99808,4.176212 -4.3300005,4.18 -0.6968554,-0.0059 -1.3823357,-0.177303 -2,-0.5 0.811918,1.124915 2.1126975,1.793888 3.5000005,1.8 z"
         inkscape:connector-curvature="0"
         style="fill:#25f4ee" />
      <path
         id="path843"
         d="M 26.190764,8.33 V 7.18 c -1.391124,4.762e-4 -2.751386,-0.4100376 -3.91,-1.18 1.015681,1.1807177 2.388198,1.9986118 3.91,2.33 z"
         inkscape:connector-curvature="0"
         style="fill:#25f4ee" />
      <path
         id="path845"
         d="m 22.280764,6 c -1.141297,-1.2996684 -1.770467,-2.9703478 -1.77,-4.7 h -1.379999 c 0.360216,1.9326852 1.499273,3.6322307 3.149999,4.7 z"
         inkscape:connector-curvature="0"
         style="fill:#fe2c55" />
      <path
         id="path847"
         d="M 9.5107645,16.17 C 7.5192181,16.180218 5.7902163,17.544593 5.317212,19.47918 4.8442078,21.413768 5.7486096,23.422007 7.5107645,24.35 6.5559483,23.031772 6.4210687,21.289434 7.1616288,19.839961 7.902189,18.390489 9.3930673,17.478778 11.020765,17.48 c 0.43401,0.0054 0.865026,0.07276 1.28,0.2 v -5.26 c -0.423773,-0.06349 -0.851509,-0.09691 -1.28,-0.1 h -0.23 v 4 C 10.373637,16.208154 9.9424493,16.157625 9.5107645,16.17 Z"
         inkscape:connector-curvature="0"
         style="fill:#fe2c55" />
      <path
         id="path849"
         d="m 26.190764,8.33 v 4 c -2.575294,-0.005 -5.083739,-0.820138 -7.17,-2.33 v 10.51 c -0.01103,5.244416 -4.265572,9.490012 -9.5099995,9.49 -1.9476367,0.0035 -3.8483613,-0.597509 -5.44,-1.72 2.6562222,2.856811 6.7900615,3.797199 10.4207065,2.370559 3.630644,-1.426641 6.018466,-4.929677 6.019293,-8.830559 V 11.34 c 2.09326,1.499966 4.604808,2.304501 7.18,2.3 V 8.49 c -0.504172,-0.0016 -1.006833,-0.055222 -1.5,-0.16 z"
         inkscape:connector-curvature="0"
         style="fill:#fe2c55" />
      <path
         id="path851"
         d="M 19.020764,20.51 V 10 c 2.092645,1.50119 4.604598,2.305855 7.18,2.3 v -4 C 24.679254,7.9787126 23.30344,7.1714749 22.280764,6 20.630038,4.9322307 19.490981,3.2326852 19.130765,1.3 h -3.78 V 22 c -0.07561,1.846766 -1.312566,3.44302 -3.081996,3.97723 C 10.499339,26.51144 8.5857094,25.866381 7.5007645,24.37 5.7386096,23.442007 4.8342078,21.433768 5.307212,19.49918 5.7802163,17.564593 7.5092181,16.200218 9.5007645,16.19 c 0.4341385,0.0039 0.8653745,0.07125 1.2800005,0.2 v -4 C 7.0223379,12.453669 3.6565393,14.731977 2.2009456,18.197676 0.74535194,21.663375 1.4749449,25.661748 4.0607645,28.39 c 1.6073309,1.085506 3.5108233,1.647822 5.45,1.61 5.2444275,1.2e-5 9.4989705,-4.245584 9.5099995,-9.49 z"
         inkscape:connector-curvature="0"
         style="fill:#000000" />
    </g>
  </g>
</svg>
