<?xml version="1.0" encoding="UTF-8"?>
<svg id="Layer_2" data-name="Layer 2" xmlns="http://www.w3.org/2000/svg" viewBox="0 0 380.92 85.04">
  <defs>
    <style>
      .cls-1 {
        fill: #fff;
        stroke-width: 0px;
      }
    </style>
  </defs>
  <g id="Layer_1-2" data-name="Layer 1">
    <path class="cls-1" d="m118.95,13.28c-1.4-5.23-5.51-9.34-10.74-10.74C98.73,0,60.74,0,60.74,0c0,0-37.99,0-47.46,2.54C8.05,3.94,3.94,8.05,2.54,13.28,0,22.75,0,42.52,0,42.52c0,0,0,19.77,2.54,29.24,1.4,5.23,5.51,9.34,10.74,10.74,9.47,2.54,47.46,2.54,47.46,2.54,0,0,37.99,0,47.46-2.54,5.23-1.4,9.34-5.51,10.74-10.74,2.54-9.47,2.54-29.24,2.54-29.24,0,0,0-19.77-2.54-29.24ZM48.59,60.74V24.3l31.56,18.22-31.56,18.22Z"/>
    <g>
      <path class="cls-1" d="m176.34,77.36c-2.4-1.62-4.11-4.14-5.13-7.56-1.01-3.42-1.52-7.96-1.52-13.64v-7.73c0-5.73.58-10.34,1.74-13.81,1.16-3.47,2.97-6.01,5.43-7.6,2.46-1.59,5.69-2.39,9.69-2.39s7.09.81,9.47,2.43c2.37,1.62,4.11,4.16,5.21,7.6,1.1,3.45,1.65,8.04,1.65,13.77v7.73c0,5.68-.54,10.24-1.61,13.68-1.07,3.45-2.81,5.97-5.21,7.56-2.4,1.59-5.66,2.39-9.77,2.39s-7.54-.81-9.95-2.43Zm13.47-8.34c.66-1.74,1-4.57,1-8.51v-16.59c0-3.82-.33-6.62-1-8.38-.67-1.77-1.84-2.65-3.52-2.65s-2.77.88-3.43,2.65c-.67,1.77-1,4.56-1,8.38v16.59c0,3.94.32,6.78.96,8.51.64,1.74,1.79,2.61,3.47,2.61s2.85-.87,3.52-2.61Z"/>
      <path class="cls-1" d="m360.86,56.29v2.69c0,3.42.1,5.98.3,7.69.2,1.71.62,2.95,1.26,3.74.64.78,1.62,1.17,2.95,1.17,1.79,0,3.03-.7,3.69-2.09.67-1.39,1.03-3.71,1.09-6.95l10.34.61c.06.46.09,1.1.09,1.91,0,4.92-1.35,8.6-4.04,11.03-2.69,2.43-6.5,3.65-11.42,3.65-5.91,0-10.05-1.85-12.42-5.56-2.38-3.71-3.56-9.44-3.56-17.2v-9.3c0-7.99,1.23-13.83,3.69-17.51,2.46-3.68,6.67-5.52,12.64-5.52,4.11,0,7.27.75,9.47,2.26,2.2,1.51,3.75,3.85,4.65,7.04.9,3.19,1.35,7.59,1.35,13.21v9.12h-20.07Zm1.52-22.41c-.61.75-1.01,1.98-1.22,3.69-.2,1.71-.3,4.3-.3,7.78v3.82h8.77v-3.82c0-3.42-.12-6.01-.35-7.78-.23-1.77-.65-3.01-1.26-3.74-.61-.72-1.55-1.09-2.82-1.09s-2.22.38-2.82,1.13Z"/>
      <path class="cls-1" d="m147.14,55.3l-13.64-49.26h11.9l4.78,22.33c1.22,5.5,2.11,10.19,2.69,14.07h.35c.4-2.78,1.3-7.44,2.69-13.99l4.95-22.41h11.9l-13.81,49.26v23.63h-11.82v-23.63Z"/>
      <path class="cls-1" d="m241.59,25.67v53.26h-9.38l-1.04-6.52h-.26c-2.55,4.92-6.37,7.38-11.47,7.38-3.53,0-6.14-1.16-7.82-3.47-1.68-2.32-2.52-5.94-2.52-10.86V25.67h11.99v39.09c0,2.38.26,4.07.78,5.08.52,1.01,1.39,1.52,2.61,1.52,1.04,0,2.04-.32,3-.96.96-.64,1.66-1.45,2.13-2.43V25.67h11.99Z"/>
      <path class="cls-1" d="m303.08,25.67v53.26h-9.38l-1.04-6.52h-.26c-2.55,4.92-6.37,7.38-11.47,7.38-3.53,0-6.14-1.16-7.82-3.47-1.68-2.32-2.52-5.94-2.52-10.86V25.67h11.99v39.09c0,2.38.26,4.07.78,5.08.52,1.01,1.39,1.52,2.61,1.52,1.04,0,2.04-.32,3-.96.96-.64,1.66-1.45,2.13-2.43V25.67h11.99Z"/>
      <path class="cls-1" d="m274.16,15.68h-11.9v63.25h-11.73V15.68h-11.9V6.04h35.53v9.64Z"/>
      <path class="cls-1" d="m342.76,34.18c-.73-3.36-1.9-5.79-3.52-7.3-1.62-1.51-3.85-2.26-6.69-2.26-2.2,0-4.26.62-6.17,1.87-1.91,1.25-3.39,2.88-4.43,4.91h-.09V3.34s-11.55,0-11.55,0v75.58h9.9l1.22-5.04h.26c.93,1.8,2.32,3.21,4.17,4.26,1.85,1.04,3.91,1.56,6.17,1.56,4.05,0,7.04-1.87,8.95-5.6,1.91-3.74,2.87-9.57,2.87-17.51v-8.43c0-5.96-.36-10.63-1.09-13.99Zm-10.99,21.72c0,3.88-.16,6.92-.48,9.12-.32,2.2-.85,3.77-1.61,4.69-.75.93-1.77,1.39-3.04,1.39-.99,0-1.9-.23-2.74-.7-.84-.46-1.52-1.16-2.04-2.08v-30.23c.4-1.45,1.1-2.63,2.09-3.56.98-.93,2.06-1.39,3.21-1.39,1.22,0,2.16.48,2.82,1.43.67.96,1.13,2.56,1.39,4.82.26,2.26.39,5.47.39,9.64v6.86Z"/>
    </g>
  </g>
</svg>